<svg width="185" height="198" viewBox="0 0 185 198" fill="none" xmlns="http://www.w3.org/2000/svg">
<path fill-rule="evenodd" clip-rule="evenodd" d="M0.374183 62.2889C0.997183 132.005 1.3142 134.822 10.7252 154.121C18.9562 171.001 36.5772 186.545 53.7832 192.103C71.0582 197.684 97.1922 199.605 114.391 196.559C155.116 189.346 177.928 164.267 182.874 121.272C183.538 115.497 184.085 85.8969 184.091 55.4949C184.103 -7.26307 185.416 -0.905066 172.935 1.46293C156.59 4.56193 142.672 15.3419 135.011 30.8359C131.954 37.0199 130.299 43.8039 130.166 50.7019L129.605 79.8229C128.661 128.761 127.383 135.076 116.414 144.986C109.931 150.842 103.956 152.747 92.0692 152.742C83.7832 152.74 81.0522 152.186 75.2082 149.328C67.1322 145.376 63.3302 140.879 59.3232 130.536C56.6022 123.512 56.4092 121.022 55.6532 82.9789C54.8122 40.6899 54.7442 40.1729 48.3652 27.6699C42.3462 15.8689 25.7932 4.16294 11.3082 1.45894C-1.60081 -0.950063 -0.257817 -8.42406 0.374183 62.2889Z" fill="white"/>
</svg>
