<?xml version="1.0" standalone="no"?>
<svg xmlns="http://www.w3.org/2000/svg" width="300" height="300"><defs><clipPath id="clip-path-dot-color"><circle cx="9.5" cy="79.5" r="3.5" transform="rotate(0,9.5,79.5)"/><circle cx="9.5" cy="93.5" r="3.5" transform="rotate(0,9.5,93.5)"/><circle cx="9.5" cy="114.5" r="3.5" transform="rotate(0,9.5,114.5)"/><circle cx="9.5" cy="149.5" r="3.5" transform="rotate(0,9.5,149.5)"/><circle cx="9.5" cy="170.5" r="3.5" transform="rotate(0,9.5,170.5)"/><circle cx="9.5" cy="184.5" r="3.5" transform="rotate(0,9.5,184.5)"/><circle cx="9.5" cy="191.5" r="3.5" transform="rotate(0,9.5,191.5)"/><circle cx="9.5" cy="212.5" r="3.5" transform="rotate(0,9.5,212.5)"/><circle cx="9.5" cy="219.5" r="3.5" transform="rotate(0,9.5,219.5)"/><circle cx="16.5" cy="72.5" r="3.5" transform="rotate(0,16.5,72.5)"/><circle cx="16.5" cy="86.5" r="3.5" transform="rotate(0,16.5,86.5)"/><circle cx="16.5" cy="114.5" r="3.5" transform="rotate(0,16.5,114.5)"/><circle cx="16.5" cy="121.5" r="3.5" transform="rotate(0,16.5,121.5)"/><circle cx="16.5" cy="135.5" r="3.5" transform="rotate(0,16.5,135.5)"/><circle cx="16.5" cy="142.5" r="3.5" transform="rotate(0,16.5,142.5)"/><circle cx="16.5" cy="149.5" r="3.5" transform="rotate(0,16.5,149.5)"/><circle cx="16.5" cy="156.5" r="3.5" transform="rotate(0,16.5,156.5)"/><circle cx="16.5" cy="163.5" r="3.5" transform="rotate(0,16.5,163.5)"/><circle cx="16.5" cy="170.5" r="3.5" transform="rotate(0,16.5,170.5)"/><circle cx="16.5" cy="184.5" r="3.5" transform="rotate(0,16.5,184.5)"/><circle cx="16.5" cy="205.5" r="3.5" transform="rotate(0,16.5,205.5)"/><circle cx="16.5" cy="212.5" r="3.5" transform="rotate(0,16.5,212.5)"/><circle cx="16.5" cy="233.5" r="3.5" transform="rotate(0,16.5,233.5)"/><circle cx="23.5" cy="93.5" r="3.5" transform="rotate(0,23.5,93.5)"/><circle cx="23.5" cy="100.5" r="3.5" transform="rotate(0,23.5,100.5)"/><circle cx="23.5" cy="135.5" r="3.5" transform="rotate(0,23.5,135.5)"/><circle cx="23.5" cy="149.5" r="3.5" transform="rotate(0,23.5,149.5)"/><circle cx="23.5" cy="156.5" r="3.5" transform="rotate(0,23.5,156.5)"/><circle cx="23.5" cy="170.5" r="3.5" transform="rotate(0,23.5,170.5)"/><circle cx="23.5" cy="184.5" r="3.5" transform="rotate(0,23.5,184.5)"/><circle cx="23.5" cy="191.5" r="3.5" transform="rotate(0,23.5,191.5)"/><circle cx="23.5" cy="212.5" r="3.5" transform="rotate(0,23.5,212.5)"/><circle cx="23.5" cy="226.5" r="3.5" transform="rotate(0,23.5,226.5)"/><circle cx="30.5" cy="65.5" r="3.5" transform="rotate(0,30.5,65.5)"/><circle cx="30.5" cy="72.5" r="3.5" transform="rotate(0,30.5,72.5)"/><circle cx="30.5" cy="79.5" r="3.5" transform="rotate(0,30.5,79.5)"/><circle cx="30.5" cy="93.5" r="3.5" transform="rotate(0,30.5,93.5)"/><circle cx="30.5" cy="100.5" r="3.5" transform="rotate(0,30.5,100.5)"/><circle cx="30.5" cy="107.5" r="3.5" transform="rotate(0,30.5,107.5)"/><circle cx="30.5" cy="121.5" r="3.5" transform="rotate(0,30.5,121.5)"/><circle cx="30.5" cy="135.5" r="3.5" transform="rotate(0,30.5,135.5)"/><circle cx="30.5" cy="149.5" r="3.5" transform="rotate(0,30.5,149.5)"/><circle cx="30.5" cy="163.5" r="3.5" transform="rotate(0,30.5,163.5)"/><circle cx="30.5" cy="177.5" r="3.5" transform="rotate(0,30.5,177.5)"/><circle cx="30.5" cy="184.5" r="3.5" transform="rotate(0,30.5,184.5)"/><circle cx="30.5" cy="191.5" r="3.5" transform="rotate(0,30.5,191.5)"/><circle cx="30.5" cy="205.5" r="3.5" transform="rotate(0,30.5,205.5)"/><circle cx="30.5" cy="212.5" r="3.5" transform="rotate(0,30.5,212.5)"/><circle cx="30.5" cy="226.5" r="3.5" transform="rotate(0,30.5,226.5)"/><circle cx="30.5" cy="233.5" r="3.5" transform="rotate(0,30.5,233.5)"/><circle cx="37.5" cy="79.5" r="3.5" transform="rotate(0,37.5,79.5)"/><circle cx="37.5" cy="93.5" r="3.5" transform="rotate(0,37.5,93.5)"/><circle cx="37.5" cy="100.5" r="3.5" transform="rotate(0,37.5,100.5)"/><circle cx="37.5" cy="114.5" r="3.5" transform="rotate(0,37.5,114.5)"/><circle cx="37.5" cy="128.5" r="3.5" transform="rotate(0,37.5,128.5)"/><circle cx="37.5" cy="135.5" r="3.5" transform="rotate(0,37.5,135.5)"/><circle cx="37.5" cy="142.5" r="3.5" transform="rotate(0,37.5,142.5)"/><circle cx="37.5" cy="149.5" r="3.5" transform="rotate(0,37.5,149.5)"/><circle cx="37.5" cy="163.5" r="3.5" transform="rotate(0,37.5,163.5)"/><circle cx="37.5" cy="177.5" r="3.5" transform="rotate(0,37.5,177.5)"/><circle cx="37.5" cy="184.5" r="3.5" transform="rotate(0,37.5,184.5)"/><circle cx="37.5" cy="191.5" r="3.5" transform="rotate(0,37.5,191.5)"/><circle cx="37.5" cy="212.5" r="3.5" transform="rotate(0,37.5,212.5)"/><circle cx="37.5" cy="219.5" r="3.5" transform="rotate(0,37.5,219.5)"/><circle cx="44.5" cy="65.5" r="3.5" transform="rotate(0,44.5,65.5)"/><circle cx="44.5" cy="72.5" r="3.5" transform="rotate(0,44.5,72.5)"/><circle cx="44.5" cy="93.5" r="3.5" transform="rotate(0,44.5,93.5)"/><circle cx="44.5" cy="100.5" r="3.5" transform="rotate(0,44.5,100.5)"/><circle cx="44.5" cy="121.5" r="3.5" transform="rotate(0,44.5,121.5)"/><circle cx="44.5" cy="128.5" r="3.5" transform="rotate(0,44.5,128.5)"/><circle cx="44.5" cy="135.5" r="3.5" transform="rotate(0,44.5,135.5)"/><circle cx="44.5" cy="149.5" r="3.5" transform="rotate(0,44.5,149.5)"/><circle cx="44.5" cy="170.5" r="3.5" transform="rotate(0,44.5,170.5)"/><circle cx="44.5" cy="184.5" r="3.5" transform="rotate(0,44.5,184.5)"/><circle cx="44.5" cy="191.5" r="3.5" transform="rotate(0,44.5,191.5)"/><circle cx="44.5" cy="233.5" r="3.5" transform="rotate(0,44.5,233.5)"/><circle cx="51.5" cy="65.5" r="3.5" transform="rotate(0,51.5,65.5)"/><circle cx="51.5" cy="79.5" r="3.5" transform="rotate(0,51.5,79.5)"/><circle cx="51.5" cy="93.5" r="3.5" transform="rotate(0,51.5,93.5)"/><circle cx="51.5" cy="107.5" r="3.5" transform="rotate(0,51.5,107.5)"/><circle cx="51.5" cy="121.5" r="3.5" transform="rotate(0,51.5,121.5)"/><circle cx="51.5" cy="135.5" r="3.5" transform="rotate(0,51.5,135.5)"/><circle cx="51.5" cy="149.5" r="3.5" transform="rotate(0,51.5,149.5)"/><circle cx="51.5" cy="163.5" r="3.5" transform="rotate(0,51.5,163.5)"/><circle cx="51.5" cy="177.5" r="3.5" transform="rotate(0,51.5,177.5)"/><circle cx="51.5" cy="191.5" r="3.5" transform="rotate(0,51.5,191.5)"/><circle cx="51.5" cy="205.5" r="3.5" transform="rotate(0,51.5,205.5)"/><circle cx="51.5" cy="219.5" r="3.5" transform="rotate(0,51.5,219.5)"/><circle cx="51.5" cy="233.5" r="3.5" transform="rotate(0,51.5,233.5)"/><circle cx="58.5" cy="65.5" r="3.5" transform="rotate(0,58.5,65.5)"/><circle cx="58.5" cy="72.5" r="3.5" transform="rotate(0,58.5,72.5)"/><circle cx="58.5" cy="79.5" r="3.5" transform="rotate(0,58.5,79.5)"/><circle cx="58.5" cy="100.5" r="3.5" transform="rotate(0,58.5,100.5)"/><circle cx="58.5" cy="107.5" r="3.5" transform="rotate(0,58.5,107.5)"/><circle cx="58.5" cy="121.5" r="3.5" transform="rotate(0,58.5,121.5)"/><circle cx="58.5" cy="128.5" r="3.5" transform="rotate(0,58.5,128.5)"/><circle cx="58.5" cy="149.5" r="3.5" transform="rotate(0,58.5,149.5)"/><circle cx="58.5" cy="163.5" r="3.5" transform="rotate(0,58.5,163.5)"/><circle cx="58.5" cy="177.5" r="3.5" transform="rotate(0,58.5,177.5)"/><circle cx="58.5" cy="191.5" r="3.5" transform="rotate(0,58.5,191.5)"/><circle cx="58.5" cy="226.5" r="3.5" transform="rotate(0,58.5,226.5)"/><circle cx="58.5" cy="233.5" r="3.5" transform="rotate(0,58.5,233.5)"/><circle cx="65.5" cy="16.5" r="3.5" transform="rotate(0,65.5,16.5)"/><circle cx="65.5" cy="23.5" r="3.5" transform="rotate(0,65.5,23.5)"/><circle cx="65.5" cy="51.5" r="3.5" transform="rotate(0,65.5,51.5)"/><circle cx="65.5" cy="79.5" r="3.5" transform="rotate(0,65.5,79.5)"/><circle cx="65.5" cy="93.5" r="3.5" transform="rotate(0,65.5,93.5)"/><circle cx="65.5" cy="100.5" r="3.5" transform="rotate(0,65.5,100.5)"/><circle cx="65.5" cy="128.5" r="3.5" transform="rotate(0,65.5,128.5)"/><circle cx="65.5" cy="142.5" r="3.5" transform="rotate(0,65.5,142.5)"/><circle cx="65.5" cy="198.5" r="3.5" transform="rotate(0,65.5,198.5)"/><circle cx="65.5" cy="205.5" r="3.5" transform="rotate(0,65.5,205.5)"/><circle cx="65.5" cy="247.5" r="3.5" transform="rotate(0,65.5,247.5)"/><circle cx="65.5" cy="254.5" r="3.5" transform="rotate(0,65.5,254.5)"/><circle cx="65.5" cy="268.5" r="3.5" transform="rotate(0,65.5,268.5)"/><circle cx="72.5" cy="9.5" r="3.5" transform="rotate(0,72.5,9.5)"/><circle cx="72.5" cy="16.5" r="3.5" transform="rotate(0,72.5,16.5)"/><circle cx="72.5" cy="23.5" r="3.5" transform="rotate(0,72.5,23.5)"/><circle cx="72.5" cy="30.5" r="3.5" transform="rotate(0,72.5,30.5)"/><circle cx="72.5" cy="44.5" r="3.5" transform="rotate(0,72.5,44.5)"/><circle cx="72.5" cy="72.5" r="3.5" transform="rotate(0,72.5,72.5)"/><circle cx="72.5" cy="79.5" r="3.5" transform="rotate(0,72.5,79.5)"/><circle cx="72.5" cy="86.5" r="3.5" transform="rotate(0,72.5,86.5)"/><circle cx="72.5" cy="93.5" r="3.5" transform="rotate(0,72.5,93.5)"/><circle cx="72.5" cy="114.5" r="3.5" transform="rotate(0,72.5,114.5)"/><circle cx="72.5" cy="128.5" r="3.5" transform="rotate(0,72.5,128.5)"/><circle cx="72.5" cy="142.5" r="3.5" transform="rotate(0,72.5,142.5)"/><circle cx="72.5" cy="156.5" r="3.5" transform="rotate(0,72.5,156.5)"/><circle cx="72.5" cy="163.5" r="3.5" transform="rotate(0,72.5,163.5)"/><circle cx="72.5" cy="170.5" r="3.5" transform="rotate(0,72.5,170.5)"/><circle cx="72.5" cy="198.5" r="3.5" transform="rotate(0,72.5,198.5)"/><circle cx="72.5" cy="205.5" r="3.5" transform="rotate(0,72.5,205.5)"/><circle cx="72.5" cy="226.5" r="3.5" transform="rotate(0,72.5,226.5)"/><circle cx="72.5" cy="233.5" r="3.5" transform="rotate(0,72.5,233.5)"/><circle cx="72.5" cy="240.5" r="3.5" transform="rotate(0,72.5,240.5)"/><circle cx="72.5" cy="247.5" r="3.5" transform="rotate(0,72.5,247.5)"/><circle cx="72.5" cy="275.5" r="3.5" transform="rotate(0,72.5,275.5)"/><circle cx="72.5" cy="282.5" r="3.5" transform="rotate(0,72.5,282.5)"/><circle cx="72.5" cy="289.5" r="3.5" transform="rotate(0,72.5,289.5)"/><circle cx="79.5" cy="16.5" r="3.5" transform="rotate(0,79.5,16.5)"/><circle cx="79.5" cy="23.5" r="3.5" transform="rotate(0,79.5,23.5)"/><circle cx="79.5" cy="37.5" r="3.5" transform="rotate(0,79.5,37.5)"/><circle cx="79.5" cy="44.5" r="3.5" transform="rotate(0,79.5,44.5)"/><circle cx="79.5" cy="51.5" r="3.5" transform="rotate(0,79.5,51.5)"/><circle cx="79.5" cy="58.5" r="3.5" transform="rotate(0,79.5,58.5)"/><circle cx="79.5" cy="93.5" r="3.5" transform="rotate(0,79.5,93.5)"/><circle cx="79.5" cy="121.5" r="3.5" transform="rotate(0,79.5,121.5)"/><circle cx="79.5" cy="128.5" r="3.5" transform="rotate(0,79.5,128.5)"/><circle cx="79.5" cy="135.5" r="3.5" transform="rotate(0,79.5,135.5)"/><circle cx="79.5" cy="149.5" r="3.5" transform="rotate(0,79.5,149.5)"/><circle cx="79.5" cy="156.5" r="3.5" transform="rotate(0,79.5,156.5)"/><circle cx="79.5" cy="163.5" r="3.5" transform="rotate(0,79.5,163.5)"/><circle cx="79.5" cy="170.5" r="3.5" transform="rotate(0,79.5,170.5)"/><circle cx="79.5" cy="184.5" r="3.5" transform="rotate(0,79.5,184.5)"/><circle cx="79.5" cy="191.5" r="3.5" transform="rotate(0,79.5,191.5)"/><circle cx="79.5" cy="198.5" r="3.5" transform="rotate(0,79.5,198.5)"/><circle cx="79.5" cy="205.5" r="3.5" transform="rotate(0,79.5,205.5)"/><circle cx="79.5" cy="219.5" r="3.5" transform="rotate(0,79.5,219.5)"/><circle cx="79.5" cy="226.5" r="3.5" transform="rotate(0,79.5,226.5)"/><circle cx="79.5" cy="247.5" r="3.5" transform="rotate(0,79.5,247.5)"/><circle cx="79.5" cy="268.5" r="3.5" transform="rotate(0,79.5,268.5)"/><circle cx="79.5" cy="275.5" r="3.5" transform="rotate(0,79.5,275.5)"/><circle cx="79.5" cy="289.5" r="3.5" transform="rotate(0,79.5,289.5)"/><circle cx="86.5" cy="9.5" r="3.5" transform="rotate(0,86.5,9.5)"/><circle cx="86.5" cy="30.5" r="3.5" transform="rotate(0,86.5,30.5)"/><circle cx="86.5" cy="37.5" r="3.5" transform="rotate(0,86.5,37.5)"/><circle cx="86.5" cy="44.5" r="3.5" transform="rotate(0,86.5,44.5)"/><circle cx="86.5" cy="65.5" r="3.5" transform="rotate(0,86.5,65.5)"/><circle cx="86.5" cy="79.5" r="3.5" transform="rotate(0,86.5,79.5)"/><circle cx="86.5" cy="107.5" r="3.5" transform="rotate(0,86.5,107.5)"/><circle cx="86.5" cy="114.5" r="3.5" transform="rotate(0,86.5,114.5)"/><circle cx="86.5" cy="121.5" r="3.5" transform="rotate(0,86.5,121.5)"/><circle cx="86.5" cy="128.5" r="3.5" transform="rotate(0,86.5,128.5)"/><circle cx="86.5" cy="149.5" r="3.5" transform="rotate(0,86.5,149.5)"/><circle cx="86.5" cy="156.5" r="3.5" transform="rotate(0,86.5,156.5)"/><circle cx="86.5" cy="198.5" r="3.5" transform="rotate(0,86.5,198.5)"/><circle cx="86.5" cy="205.5" r="3.5" transform="rotate(0,86.5,205.5)"/><circle cx="86.5" cy="226.5" r="3.5" transform="rotate(0,86.5,226.5)"/><circle cx="86.5" cy="233.5" r="3.5" transform="rotate(0,86.5,233.5)"/><circle cx="86.5" cy="268.5" r="3.5" transform="rotate(0,86.5,268.5)"/><circle cx="86.5" cy="282.5" r="3.5" transform="rotate(0,86.5,282.5)"/><circle cx="93.5" cy="16.5" r="3.5" transform="rotate(0,93.5,16.5)"/><circle cx="93.5" cy="30.5" r="3.5" transform="rotate(0,93.5,30.5)"/><circle cx="93.5" cy="37.5" r="3.5" transform="rotate(0,93.5,37.5)"/><circle cx="93.5" cy="44.5" r="3.5" transform="rotate(0,93.5,44.5)"/><circle cx="93.5" cy="51.5" r="3.5" transform="rotate(0,93.5,51.5)"/><circle cx="93.5" cy="65.5" r="3.5" transform="rotate(0,93.5,65.5)"/><circle cx="93.5" cy="72.5" r="3.5" transform="rotate(0,93.5,72.5)"/><circle cx="93.5" cy="93.5" r="3.5" transform="rotate(0,93.5,93.5)"/><circle cx="93.5" cy="114.5" r="3.5" transform="rotate(0,93.5,114.5)"/><circle cx="93.5" cy="128.5" r="3.5" transform="rotate(0,93.5,128.5)"/><circle cx="93.5" cy="142.5" r="3.5" transform="rotate(0,93.5,142.5)"/><circle cx="93.5" cy="149.5" r="3.5" transform="rotate(0,93.5,149.5)"/><circle cx="93.5" cy="156.5" r="3.5" transform="rotate(0,93.5,156.5)"/><circle cx="93.5" cy="163.5" r="3.5" transform="rotate(0,93.5,163.5)"/><circle cx="93.5" cy="170.5" r="3.5" transform="rotate(0,93.5,170.5)"/><circle cx="93.5" cy="177.5" r="3.5" transform="rotate(0,93.5,177.5)"/><circle cx="93.5" cy="247.5" r="3.5" transform="rotate(0,93.5,247.5)"/><circle cx="93.5" cy="254.5" r="3.5" transform="rotate(0,93.5,254.5)"/><circle cx="93.5" cy="289.5" r="3.5" transform="rotate(0,93.5,289.5)"/><circle cx="100.5" cy="9.5" r="3.5" transform="rotate(0,100.5,9.5)"/><circle cx="100.5" cy="16.5" r="3.5" transform="rotate(0,100.5,16.5)"/><circle cx="100.5" cy="23.5" r="3.5" transform="rotate(0,100.5,23.5)"/><circle cx="100.5" cy="30.5" r="3.5" transform="rotate(0,100.5,30.5)"/><circle cx="100.5" cy="37.5" r="3.5" transform="rotate(0,100.5,37.5)"/><circle cx="100.5" cy="44.5" r="3.5" transform="rotate(0,100.5,44.5)"/><circle cx="100.5" cy="58.5" r="3.5" transform="rotate(0,100.5,58.5)"/><circle cx="100.5" cy="65.5" r="3.5" transform="rotate(0,100.5,65.5)"/><circle cx="100.5" cy="93.5" r="3.5" transform="rotate(0,100.5,93.5)"/><circle cx="100.5" cy="121.5" r="3.5" transform="rotate(0,100.5,121.5)"/><circle cx="100.5" cy="149.5" r="3.5" transform="rotate(0,100.5,149.5)"/><circle cx="100.5" cy="177.5" r="3.5" transform="rotate(0,100.5,177.5)"/><circle cx="100.5" cy="191.5" r="3.5" transform="rotate(0,100.5,191.5)"/><circle cx="100.5" cy="198.5" r="3.5" transform="rotate(0,100.5,198.5)"/><circle cx="100.5" cy="205.5" r="3.5" transform="rotate(0,100.5,205.5)"/><circle cx="100.5" cy="226.5" r="3.5" transform="rotate(0,100.5,226.5)"/><circle cx="100.5" cy="233.5" r="3.5" transform="rotate(0,100.5,233.5)"/><circle cx="100.5" cy="247.5" r="3.5" transform="rotate(0,100.5,247.5)"/><circle cx="100.5" cy="268.5" r="3.5" transform="rotate(0,100.5,268.5)"/><circle cx="100.5" cy="275.5" r="3.5" transform="rotate(0,100.5,275.5)"/><circle cx="100.5" cy="289.5" r="3.5" transform="rotate(0,100.5,289.5)"/><circle cx="107.5" cy="37.5" r="3.5" transform="rotate(0,107.5,37.5)"/><circle cx="107.5" cy="51.5" r="3.5" transform="rotate(0,107.5,51.5)"/><circle cx="107.5" cy="135.5" r="3.5" transform="rotate(0,107.5,135.5)"/><circle cx="107.5" cy="149.5" r="3.5" transform="rotate(0,107.5,149.5)"/><circle cx="107.5" cy="163.5" r="3.5" transform="rotate(0,107.5,163.5)"/><circle cx="107.5" cy="177.5" r="3.5" transform="rotate(0,107.5,177.5)"/><circle cx="107.5" cy="184.5" r="3.5" transform="rotate(0,107.5,184.5)"/><circle cx="107.5" cy="198.5" r="3.5" transform="rotate(0,107.5,198.5)"/><circle cx="107.5" cy="219.5" r="3.5" transform="rotate(0,107.5,219.5)"/><circle cx="107.5" cy="226.5" r="3.5" transform="rotate(0,107.5,226.5)"/><circle cx="107.5" cy="233.5" r="3.5" transform="rotate(0,107.5,233.5)"/><circle cx="107.5" cy="240.5" r="3.5" transform="rotate(0,107.5,240.5)"/><circle cx="107.5" cy="247.5" r="3.5" transform="rotate(0,107.5,247.5)"/><circle cx="107.5" cy="261.5" r="3.5" transform="rotate(0,107.5,261.5)"/><circle cx="107.5" cy="268.5" r="3.5" transform="rotate(0,107.5,268.5)"/><circle cx="107.5" cy="289.5" r="3.5" transform="rotate(0,107.5,289.5)"/><circle cx="114.5" cy="23.5" r="3.5" transform="rotate(0,114.5,23.5)"/><circle cx="114.5" cy="30.5" r="3.5" transform="rotate(0,114.5,30.5)"/><circle cx="114.5" cy="58.5" r="3.5" transform="rotate(0,114.5,58.5)"/><circle cx="114.5" cy="79.5" r="3.5" transform="rotate(0,114.5,79.5)"/><circle cx="114.5" cy="100.5" r="3.5" transform="rotate(0,114.5,100.5)"/><circle cx="114.5" cy="107.5" r="3.5" transform="rotate(0,114.5,107.5)"/><circle cx="114.5" cy="121.5" r="3.5" transform="rotate(0,114.5,121.5)"/><circle cx="114.5" cy="128.5" r="3.5" transform="rotate(0,114.5,128.5)"/><circle cx="114.5" cy="135.5" r="3.5" transform="rotate(0,114.5,135.5)"/><circle cx="114.5" cy="163.5" r="3.5" transform="rotate(0,114.5,163.5)"/><circle cx="114.5" cy="170.5" r="3.5" transform="rotate(0,114.5,170.5)"/><circle cx="114.5" cy="177.5" r="3.5" transform="rotate(0,114.5,177.5)"/><circle cx="114.5" cy="191.5" r="3.5" transform="rotate(0,114.5,191.5)"/><circle cx="114.5" cy="198.5" r="3.5" transform="rotate(0,114.5,198.5)"/><circle cx="114.5" cy="219.5" r="3.5" transform="rotate(0,114.5,219.5)"/><circle cx="114.5" cy="226.5" r="3.5" transform="rotate(0,114.5,226.5)"/><circle cx="114.5" cy="240.5" r="3.5" transform="rotate(0,114.5,240.5)"/><circle cx="114.5" cy="247.5" r="3.5" transform="rotate(0,114.5,247.5)"/><circle cx="114.5" cy="254.5" r="3.5" transform="rotate(0,114.5,254.5)"/><circle cx="114.5" cy="261.5" r="3.5" transform="rotate(0,114.5,261.5)"/><circle cx="114.5" cy="268.5" r="3.5" transform="rotate(0,114.5,268.5)"/><circle cx="121.5" cy="9.5" r="3.5" transform="rotate(0,121.5,9.5)"/><circle cx="121.5" cy="23.5" r="3.5" transform="rotate(0,121.5,23.5)"/><circle cx="121.5" cy="44.5" r="3.5" transform="rotate(0,121.5,44.5)"/><circle cx="121.5" cy="51.5" r="3.5" transform="rotate(0,121.5,51.5)"/><circle cx="121.5" cy="65.5" r="3.5" transform="rotate(0,121.5,65.5)"/><circle cx="121.5" cy="72.5" r="3.5" transform="rotate(0,121.5,72.5)"/><circle cx="121.5" cy="93.5" r="3.5" transform="rotate(0,121.5,93.5)"/><circle cx="121.5" cy="114.5" r="3.5" transform="rotate(0,121.5,114.5)"/><circle cx="121.5" cy="121.5" r="3.5" transform="rotate(0,121.5,121.5)"/><circle cx="121.5" cy="135.5" r="3.5" transform="rotate(0,121.5,135.5)"/><circle cx="121.5" cy="156.5" r="3.5" transform="rotate(0,121.5,156.5)"/><circle cx="121.5" cy="163.5" r="3.5" transform="rotate(0,121.5,163.5)"/><circle cx="121.5" cy="177.5" r="3.5" transform="rotate(0,121.5,177.5)"/><circle cx="121.5" cy="198.5" r="3.5" transform="rotate(0,121.5,198.5)"/><circle cx="121.5" cy="205.5" r="3.5" transform="rotate(0,121.5,205.5)"/><circle cx="121.5" cy="226.5" r="3.5" transform="rotate(0,121.5,226.5)"/><circle cx="121.5" cy="240.5" r="3.5" transform="rotate(0,121.5,240.5)"/><circle cx="121.5" cy="247.5" r="3.5" transform="rotate(0,121.5,247.5)"/><circle cx="121.5" cy="268.5" r="3.5" transform="rotate(0,121.5,268.5)"/><circle cx="121.5" cy="289.5" r="3.5" transform="rotate(0,121.5,289.5)"/><circle cx="128.5" cy="9.5" r="3.5" transform="rotate(0,128.5,9.5)"/><circle cx="128.5" cy="16.5" r="3.5" transform="rotate(0,128.5,16.5)"/><circle cx="128.5" cy="23.5" r="3.5" transform="rotate(0,128.5,23.5)"/><circle cx="128.5" cy="37.5" r="3.5" transform="rotate(0,128.5,37.5)"/><circle cx="128.5" cy="44.5" r="3.5" transform="rotate(0,128.5,44.5)"/><circle cx="128.5" cy="58.5" r="3.5" transform="rotate(0,128.5,58.5)"/><circle cx="128.5" cy="65.5" r="3.5" transform="rotate(0,128.5,65.5)"/><circle cx="128.5" cy="72.5" r="3.5" transform="rotate(0,128.5,72.5)"/><circle cx="128.5" cy="100.5" r="3.5" transform="rotate(0,128.5,100.5)"/><circle cx="128.5" cy="121.5" r="3.5" transform="rotate(0,128.5,121.5)"/><circle cx="128.5" cy="128.5" r="3.5" transform="rotate(0,128.5,128.5)"/><circle cx="128.5" cy="142.5" r="3.5" transform="rotate(0,128.5,142.5)"/><circle cx="128.5" cy="149.5" r="3.5" transform="rotate(0,128.5,149.5)"/><circle cx="128.5" cy="163.5" r="3.5" transform="rotate(0,128.5,163.5)"/><circle cx="128.5" cy="170.5" r="3.5" transform="rotate(0,128.5,170.5)"/><circle cx="128.5" cy="177.5" r="3.5" transform="rotate(0,128.5,177.5)"/><circle cx="128.5" cy="198.5" r="3.5" transform="rotate(0,128.5,198.5)"/><circle cx="128.5" cy="205.5" r="3.5" transform="rotate(0,128.5,205.5)"/><circle cx="128.5" cy="212.5" r="3.5" transform="rotate(0,128.5,212.5)"/><circle cx="128.5" cy="226.5" r="3.5" transform="rotate(0,128.5,226.5)"/><circle cx="128.5" cy="240.5" r="3.5" transform="rotate(0,128.5,240.5)"/><circle cx="128.5" cy="247.5" r="3.5" transform="rotate(0,128.5,247.5)"/><circle cx="128.5" cy="254.5" r="3.5" transform="rotate(0,128.5,254.5)"/><circle cx="128.5" cy="289.5" r="3.5" transform="rotate(0,128.5,289.5)"/><circle cx="135.5" cy="16.5" r="3.5" transform="rotate(0,135.5,16.5)"/><circle cx="135.5" cy="23.5" r="3.5" transform="rotate(0,135.5,23.5)"/><circle cx="135.5" cy="37.5" r="3.5" transform="rotate(0,135.5,37.5)"/><circle cx="135.5" cy="44.5" r="3.5" transform="rotate(0,135.5,44.5)"/><circle cx="135.5" cy="51.5" r="3.5" transform="rotate(0,135.5,51.5)"/><circle cx="135.5" cy="58.5" r="3.5" transform="rotate(0,135.5,58.5)"/><circle cx="135.5" cy="86.5" r="3.5" transform="rotate(0,135.5,86.5)"/><circle cx="135.5" cy="93.5" r="3.5" transform="rotate(0,135.5,93.5)"/><circle cx="135.5" cy="100.5" r="3.5" transform="rotate(0,135.5,100.5)"/><circle cx="135.5" cy="107.5" r="3.5" transform="rotate(0,135.5,107.5)"/><circle cx="135.5" cy="128.5" r="3.5" transform="rotate(0,135.5,128.5)"/><circle cx="135.5" cy="149.5" r="3.5" transform="rotate(0,135.5,149.5)"/><circle cx="135.5" cy="170.5" r="3.5" transform="rotate(0,135.5,170.5)"/><circle cx="135.5" cy="184.5" r="3.5" transform="rotate(0,135.5,184.5)"/><circle cx="135.5" cy="191.5" r="3.5" transform="rotate(0,135.5,191.5)"/><circle cx="135.5" cy="198.5" r="3.5" transform="rotate(0,135.5,198.5)"/><circle cx="135.5" cy="205.5" r="3.5" transform="rotate(0,135.5,205.5)"/><circle cx="135.5" cy="226.5" r="3.5" transform="rotate(0,135.5,226.5)"/><circle cx="135.5" cy="233.5" r="3.5" transform="rotate(0,135.5,233.5)"/><circle cx="135.5" cy="254.5" r="3.5" transform="rotate(0,135.5,254.5)"/><circle cx="135.5" cy="261.5" r="3.5" transform="rotate(0,135.5,261.5)"/><circle cx="135.5" cy="275.5" r="3.5" transform="rotate(0,135.5,275.5)"/><circle cx="135.5" cy="282.5" r="3.5" transform="rotate(0,135.5,282.5)"/><circle cx="135.5" cy="289.5" r="3.5" transform="rotate(0,135.5,289.5)"/><circle cx="142.5" cy="16.5" r="3.5" transform="rotate(0,142.5,16.5)"/><circle cx="142.5" cy="44.5" r="3.5" transform="rotate(0,142.5,44.5)"/><circle cx="142.5" cy="72.5" r="3.5" transform="rotate(0,142.5,72.5)"/><circle cx="142.5" cy="142.5" r="3.5" transform="rotate(0,142.5,142.5)"/><circle cx="142.5" cy="156.5" r="3.5" transform="rotate(0,142.5,156.5)"/><circle cx="142.5" cy="163.5" r="3.5" transform="rotate(0,142.5,163.5)"/><circle cx="142.5" cy="191.5" r="3.5" transform="rotate(0,142.5,191.5)"/><circle cx="142.5" cy="198.5" r="3.5" transform="rotate(0,142.5,198.5)"/><circle cx="142.5" cy="205.5" r="3.5" transform="rotate(0,142.5,205.5)"/><circle cx="142.5" cy="233.5" r="3.5" transform="rotate(0,142.5,233.5)"/><circle cx="142.5" cy="240.5" r="3.5" transform="rotate(0,142.5,240.5)"/><circle cx="142.5" cy="247.5" r="3.5" transform="rotate(0,142.5,247.5)"/><circle cx="142.5" cy="268.5" r="3.5" transform="rotate(0,142.5,268.5)"/><circle cx="142.5" cy="282.5" r="3.5" transform="rotate(0,142.5,282.5)"/><circle cx="149.5" cy="37.5" r="3.5" transform="rotate(0,149.5,37.5)"/><circle cx="149.5" cy="44.5" r="3.5" transform="rotate(0,149.5,44.5)"/><circle cx="149.5" cy="51.5" r="3.5" transform="rotate(0,149.5,51.5)"/><circle cx="149.5" cy="58.5" r="3.5" transform="rotate(0,149.5,58.5)"/><circle cx="149.5" cy="72.5" r="3.5" transform="rotate(0,149.5,72.5)"/><circle cx="149.5" cy="79.5" r="3.5" transform="rotate(0,149.5,79.5)"/><circle cx="149.5" cy="86.5" r="3.5" transform="rotate(0,149.5,86.5)"/><circle cx="149.5" cy="93.5" r="3.5" transform="rotate(0,149.5,93.5)"/><circle cx="149.5" cy="114.5" r="3.5" transform="rotate(0,149.5,114.5)"/><circle cx="149.5" cy="121.5" r="3.5" transform="rotate(0,149.5,121.5)"/><circle cx="149.5" cy="128.5" r="3.5" transform="rotate(0,149.5,128.5)"/><circle cx="149.5" cy="135.5" r="3.5" transform="rotate(0,149.5,135.5)"/><circle cx="149.5" cy="142.5" r="3.5" transform="rotate(0,149.5,142.5)"/><circle cx="149.5" cy="156.5" r="3.5" transform="rotate(0,149.5,156.5)"/><circle cx="149.5" cy="163.5" r="3.5" transform="rotate(0,149.5,163.5)"/><circle cx="149.5" cy="177.5" r="3.5" transform="rotate(0,149.5,177.5)"/><circle cx="149.5" cy="226.5" r="3.5" transform="rotate(0,149.5,226.5)"/><circle cx="149.5" cy="233.5" r="3.5" transform="rotate(0,149.5,233.5)"/><circle cx="149.5" cy="247.5" r="3.5" transform="rotate(0,149.5,247.5)"/><circle cx="149.5" cy="268.5" r="3.5" transform="rotate(0,149.5,268.5)"/><circle cx="149.5" cy="289.5" r="3.5" transform="rotate(0,149.5,289.5)"/><circle cx="156.5" cy="9.5" r="3.5" transform="rotate(0,156.5,9.5)"/><circle cx="156.5" cy="30.5" r="3.5" transform="rotate(0,156.5,30.5)"/><circle cx="156.5" cy="44.5" r="3.5" transform="rotate(0,156.5,44.5)"/><circle cx="156.5" cy="58.5" r="3.5" transform="rotate(0,156.5,58.5)"/><circle cx="156.5" cy="72.5" r="3.5" transform="rotate(0,156.5,72.5)"/><circle cx="156.5" cy="86.5" r="3.5" transform="rotate(0,156.5,86.5)"/><circle cx="156.5" cy="114.5" r="3.5" transform="rotate(0,156.5,114.5)"/><circle cx="156.5" cy="121.5" r="3.5" transform="rotate(0,156.5,121.5)"/><circle cx="156.5" cy="135.5" r="3.5" transform="rotate(0,156.5,135.5)"/><circle cx="156.5" cy="149.5" r="3.5" transform="rotate(0,156.5,149.5)"/><circle cx="156.5" cy="170.5" r="3.5" transform="rotate(0,156.5,170.5)"/><circle cx="156.5" cy="177.5" r="3.5" transform="rotate(0,156.5,177.5)"/><circle cx="156.5" cy="184.5" r="3.5" transform="rotate(0,156.5,184.5)"/><circle cx="156.5" cy="198.5" r="3.5" transform="rotate(0,156.5,198.5)"/><circle cx="156.5" cy="205.5" r="3.5" transform="rotate(0,156.5,205.5)"/><circle cx="156.5" cy="212.5" r="3.5" transform="rotate(0,156.5,212.5)"/><circle cx="156.5" cy="219.5" r="3.5" transform="rotate(0,156.5,219.5)"/><circle cx="156.5" cy="226.5" r="3.5" transform="rotate(0,156.5,226.5)"/><circle cx="156.5" cy="233.5" r="3.5" transform="rotate(0,156.5,233.5)"/><circle cx="156.5" cy="240.5" r="3.5" transform="rotate(0,156.5,240.5)"/><circle cx="156.5" cy="247.5" r="3.5" transform="rotate(0,156.5,247.5)"/><circle cx="156.5" cy="254.5" r="3.5" transform="rotate(0,156.5,254.5)"/><circle cx="156.5" cy="289.5" r="3.5" transform="rotate(0,156.5,289.5)"/><circle cx="163.5" cy="9.5" r="3.5" transform="rotate(0,163.5,9.5)"/><circle cx="163.5" cy="23.5" r="3.5" transform="rotate(0,163.5,23.5)"/><circle cx="163.5" cy="30.5" r="3.5" transform="rotate(0,163.5,30.5)"/><circle cx="163.5" cy="37.5" r="3.5" transform="rotate(0,163.5,37.5)"/><circle cx="163.5" cy="51.5" r="3.5" transform="rotate(0,163.5,51.5)"/><circle cx="163.5" cy="65.5" r="3.5" transform="rotate(0,163.5,65.5)"/><circle cx="163.5" cy="72.5" r="3.5" transform="rotate(0,163.5,72.5)"/><circle cx="163.5" cy="79.5" r="3.5" transform="rotate(0,163.5,79.5)"/><circle cx="163.5" cy="86.5" r="3.5" transform="rotate(0,163.5,86.5)"/><circle cx="163.5" cy="149.5" r="3.5" transform="rotate(0,163.5,149.5)"/><circle cx="163.5" cy="156.5" r="3.5" transform="rotate(0,163.5,156.5)"/><circle cx="163.5" cy="163.5" r="3.5" transform="rotate(0,163.5,163.5)"/><circle cx="163.5" cy="170.5" r="3.5" transform="rotate(0,163.5,170.5)"/><circle cx="163.5" cy="177.5" r="3.5" transform="rotate(0,163.5,177.5)"/><circle cx="163.5" cy="198.5" r="3.5" transform="rotate(0,163.5,198.5)"/><circle cx="163.5" cy="212.5" r="3.5" transform="rotate(0,163.5,212.5)"/><circle cx="163.5" cy="226.5" r="3.5" transform="rotate(0,163.5,226.5)"/><circle cx="163.5" cy="233.5" r="3.5" transform="rotate(0,163.5,233.5)"/><circle cx="163.5" cy="261.5" r="3.5" transform="rotate(0,163.5,261.5)"/><circle cx="163.5" cy="289.5" r="3.5" transform="rotate(0,163.5,289.5)"/><circle cx="170.5" cy="30.5" r="3.5" transform="rotate(0,170.5,30.5)"/><circle cx="170.5" cy="58.5" r="3.5" transform="rotate(0,170.5,58.5)"/><circle cx="170.5" cy="86.5" r="3.5" transform="rotate(0,170.5,86.5)"/><circle cx="170.5" cy="93.5" r="3.5" transform="rotate(0,170.5,93.5)"/><circle cx="170.5" cy="100.5" r="3.5" transform="rotate(0,170.5,100.5)"/><circle cx="170.5" cy="107.5" r="3.5" transform="rotate(0,170.5,107.5)"/><circle cx="170.5" cy="121.5" r="3.5" transform="rotate(0,170.5,121.5)"/><circle cx="170.5" cy="135.5" r="3.5" transform="rotate(0,170.5,135.5)"/><circle cx="170.5" cy="142.5" r="3.5" transform="rotate(0,170.5,142.5)"/><circle cx="170.5" cy="149.5" r="3.5" transform="rotate(0,170.5,149.5)"/><circle cx="170.5" cy="156.5" r="3.5" transform="rotate(0,170.5,156.5)"/><circle cx="170.5" cy="163.5" r="3.5" transform="rotate(0,170.5,163.5)"/><circle cx="170.5" cy="177.5" r="3.5" transform="rotate(0,170.5,177.5)"/><circle cx="170.5" cy="191.5" r="3.5" transform="rotate(0,170.5,191.5)"/><circle cx="170.5" cy="233.5" r="3.5" transform="rotate(0,170.5,233.5)"/><circle cx="170.5" cy="240.5" r="3.5" transform="rotate(0,170.5,240.5)"/><circle cx="170.5" cy="247.5" r="3.5" transform="rotate(0,170.5,247.5)"/><circle cx="170.5" cy="254.5" r="3.5" transform="rotate(0,170.5,254.5)"/><circle cx="170.5" cy="268.5" r="3.5" transform="rotate(0,170.5,268.5)"/><circle cx="170.5" cy="282.5" r="3.5" transform="rotate(0,170.5,282.5)"/><circle cx="177.5" cy="9.5" r="3.5" transform="rotate(0,177.5,9.5)"/><circle cx="177.5" cy="16.5" r="3.5" transform="rotate(0,177.5,16.5)"/><circle cx="177.5" cy="37.5" r="3.5" transform="rotate(0,177.5,37.5)"/><circle cx="177.5" cy="44.5" r="3.5" transform="rotate(0,177.5,44.5)"/><circle cx="177.5" cy="51.5" r="3.5" transform="rotate(0,177.5,51.5)"/><circle cx="177.5" cy="58.5" r="3.5" transform="rotate(0,177.5,58.5)"/><circle cx="177.5" cy="72.5" r="3.5" transform="rotate(0,177.5,72.5)"/><circle cx="177.5" cy="79.5" r="3.5" transform="rotate(0,177.5,79.5)"/><circle cx="177.5" cy="100.5" r="3.5" transform="rotate(0,177.5,100.5)"/><circle cx="177.5" cy="107.5" r="3.5" transform="rotate(0,177.5,107.5)"/><circle cx="177.5" cy="114.5" r="3.5" transform="rotate(0,177.5,114.5)"/><circle cx="177.5" cy="128.5" r="3.5" transform="rotate(0,177.5,128.5)"/><circle cx="177.5" cy="163.5" r="3.5" transform="rotate(0,177.5,163.5)"/><circle cx="177.5" cy="170.5" r="3.5" transform="rotate(0,177.5,170.5)"/><circle cx="177.5" cy="177.5" r="3.5" transform="rotate(0,177.5,177.5)"/><circle cx="177.5" cy="198.5" r="3.5" transform="rotate(0,177.5,198.5)"/><circle cx="177.5" cy="205.5" r="3.5" transform="rotate(0,177.5,205.5)"/><circle cx="177.5" cy="226.5" r="3.5" transform="rotate(0,177.5,226.5)"/><circle cx="177.5" cy="233.5" r="3.5" transform="rotate(0,177.5,233.5)"/><circle cx="177.5" cy="247.5" r="3.5" transform="rotate(0,177.5,247.5)"/><circle cx="177.5" cy="268.5" r="3.5" transform="rotate(0,177.5,268.5)"/><circle cx="177.5" cy="282.5" r="3.5" transform="rotate(0,177.5,282.5)"/><circle cx="184.5" cy="9.5" r="3.5" transform="rotate(0,184.5,9.5)"/><circle cx="184.5" cy="16.5" r="3.5" transform="rotate(0,184.5,16.5)"/><circle cx="184.5" cy="23.5" r="3.5" transform="rotate(0,184.5,23.5)"/><circle cx="184.5" cy="44.5" r="3.5" transform="rotate(0,184.5,44.5)"/><circle cx="184.5" cy="65.5" r="3.5" transform="rotate(0,184.5,65.5)"/><circle cx="184.5" cy="107.5" r="3.5" transform="rotate(0,184.5,107.5)"/><circle cx="184.5" cy="114.5" r="3.5" transform="rotate(0,184.5,114.5)"/><circle cx="184.5" cy="128.5" r="3.5" transform="rotate(0,184.5,128.5)"/><circle cx="184.5" cy="149.5" r="3.5" transform="rotate(0,184.5,149.5)"/><circle cx="184.5" cy="156.5" r="3.5" transform="rotate(0,184.5,156.5)"/><circle cx="184.5" cy="170.5" r="3.5" transform="rotate(0,184.5,170.5)"/><circle cx="184.5" cy="177.5" r="3.5" transform="rotate(0,184.5,177.5)"/><circle cx="184.5" cy="198.5" r="3.5" transform="rotate(0,184.5,198.5)"/><circle cx="184.5" cy="226.5" r="3.5" transform="rotate(0,184.5,226.5)"/><circle cx="184.5" cy="247.5" r="3.5" transform="rotate(0,184.5,247.5)"/><circle cx="184.5" cy="254.5" r="3.5" transform="rotate(0,184.5,254.5)"/><circle cx="184.5" cy="268.5" r="3.5" transform="rotate(0,184.5,268.5)"/><circle cx="184.5" cy="282.5" r="3.5" transform="rotate(0,184.5,282.5)"/><circle cx="184.5" cy="289.5" r="3.5" transform="rotate(0,184.5,289.5)"/><circle cx="191.5" cy="9.5" r="3.5" transform="rotate(0,191.5,9.5)"/><circle cx="191.5" cy="16.5" r="3.5" transform="rotate(0,191.5,16.5)"/><circle cx="191.5" cy="23.5" r="3.5" transform="rotate(0,191.5,23.5)"/><circle cx="191.5" cy="37.5" r="3.5" transform="rotate(0,191.5,37.5)"/><circle cx="191.5" cy="51.5" r="3.5" transform="rotate(0,191.5,51.5)"/><circle cx="191.5" cy="65.5" r="3.5" transform="rotate(0,191.5,65.5)"/><circle cx="191.5" cy="79.5" r="3.5" transform="rotate(0,191.5,79.5)"/><circle cx="191.5" cy="107.5" r="3.5" transform="rotate(0,191.5,107.5)"/><circle cx="191.5" cy="128.5" r="3.5" transform="rotate(0,191.5,128.5)"/><circle cx="191.5" cy="135.5" r="3.5" transform="rotate(0,191.5,135.5)"/><circle cx="191.5" cy="156.5" r="3.5" transform="rotate(0,191.5,156.5)"/><circle cx="191.5" cy="170.5" r="3.5" transform="rotate(0,191.5,170.5)"/><circle cx="191.5" cy="191.5" r="3.5" transform="rotate(0,191.5,191.5)"/><circle cx="191.5" cy="198.5" r="3.5" transform="rotate(0,191.5,198.5)"/><circle cx="191.5" cy="212.5" r="3.5" transform="rotate(0,191.5,212.5)"/><circle cx="191.5" cy="226.5" r="3.5" transform="rotate(0,191.5,226.5)"/><circle cx="191.5" cy="247.5" r="3.5" transform="rotate(0,191.5,247.5)"/><circle cx="191.5" cy="254.5" r="3.5" transform="rotate(0,191.5,254.5)"/><circle cx="191.5" cy="261.5" r="3.5" transform="rotate(0,191.5,261.5)"/><circle cx="191.5" cy="268.5" r="3.5" transform="rotate(0,191.5,268.5)"/><circle cx="191.5" cy="275.5" r="3.5" transform="rotate(0,191.5,275.5)"/><circle cx="191.5" cy="289.5" r="3.5" transform="rotate(0,191.5,289.5)"/><circle cx="198.5" cy="16.5" r="3.5" transform="rotate(0,198.5,16.5)"/><circle cx="198.5" cy="37.5" r="3.5" transform="rotate(0,198.5,37.5)"/><circle cx="198.5" cy="44.5" r="3.5" transform="rotate(0,198.5,44.5)"/><circle cx="198.5" cy="58.5" r="3.5" transform="rotate(0,198.5,58.5)"/><circle cx="198.5" cy="65.5" r="3.5" transform="rotate(0,198.5,65.5)"/><circle cx="198.5" cy="79.5" r="3.5" transform="rotate(0,198.5,79.5)"/><circle cx="198.5" cy="100.5" r="3.5" transform="rotate(0,198.5,100.5)"/><circle cx="198.5" cy="114.5" r="3.5" transform="rotate(0,198.5,114.5)"/><circle cx="198.5" cy="156.5" r="3.5" transform="rotate(0,198.5,156.5)"/><circle cx="198.5" cy="170.5" r="3.5" transform="rotate(0,198.5,170.5)"/><circle cx="198.5" cy="177.5" r="3.5" transform="rotate(0,198.5,177.5)"/><circle cx="198.5" cy="191.5" r="3.5" transform="rotate(0,198.5,191.5)"/><circle cx="198.5" cy="219.5" r="3.5" transform="rotate(0,198.5,219.5)"/><circle cx="198.5" cy="226.5" r="3.5" transform="rotate(0,198.5,226.5)"/><circle cx="198.5" cy="233.5" r="3.5" transform="rotate(0,198.5,233.5)"/><circle cx="198.5" cy="240.5" r="3.5" transform="rotate(0,198.5,240.5)"/><circle cx="198.5" cy="254.5" r="3.5" transform="rotate(0,198.5,254.5)"/><circle cx="198.5" cy="261.5" r="3.5" transform="rotate(0,198.5,261.5)"/><circle cx="198.5" cy="268.5" r="3.5" transform="rotate(0,198.5,268.5)"/><circle cx="198.5" cy="282.5" r="3.5" transform="rotate(0,198.5,282.5)"/><circle cx="205.5" cy="16.5" r="3.5" transform="rotate(0,205.5,16.5)"/><circle cx="205.5" cy="23.5" r="3.5" transform="rotate(0,205.5,23.5)"/><circle cx="205.5" cy="30.5" r="3.5" transform="rotate(0,205.5,30.5)"/><circle cx="205.5" cy="37.5" r="3.5" transform="rotate(0,205.5,37.5)"/><circle cx="205.5" cy="44.5" r="3.5" transform="rotate(0,205.5,44.5)"/><circle cx="205.5" cy="51.5" r="3.5" transform="rotate(0,205.5,51.5)"/><circle cx="205.5" cy="72.5" r="3.5" transform="rotate(0,205.5,72.5)"/><circle cx="205.5" cy="100.5" r="3.5" transform="rotate(0,205.5,100.5)"/><circle cx="205.5" cy="114.5" r="3.5" transform="rotate(0,205.5,114.5)"/><circle cx="205.5" cy="121.5" r="3.5" transform="rotate(0,205.5,121.5)"/><circle cx="205.5" cy="128.5" r="3.5" transform="rotate(0,205.5,128.5)"/><circle cx="205.5" cy="142.5" r="3.5" transform="rotate(0,205.5,142.5)"/><circle cx="205.5" cy="149.5" r="3.5" transform="rotate(0,205.5,149.5)"/><circle cx="205.5" cy="156.5" r="3.5" transform="rotate(0,205.5,156.5)"/><circle cx="205.5" cy="163.5" r="3.5" transform="rotate(0,205.5,163.5)"/><circle cx="205.5" cy="170.5" r="3.5" transform="rotate(0,205.5,170.5)"/><circle cx="205.5" cy="177.5" r="3.5" transform="rotate(0,205.5,177.5)"/><circle cx="205.5" cy="191.5" r="3.5" transform="rotate(0,205.5,191.5)"/><circle cx="205.5" cy="205.5" r="3.5" transform="rotate(0,205.5,205.5)"/><circle cx="205.5" cy="219.5" r="3.5" transform="rotate(0,205.5,219.5)"/><circle cx="205.5" cy="247.5" r="3.5" transform="rotate(0,205.5,247.5)"/><circle cx="205.5" cy="254.5" r="3.5" transform="rotate(0,205.5,254.5)"/><circle cx="212.5" cy="58.5" r="3.5" transform="rotate(0,212.5,58.5)"/><circle cx="212.5" cy="65.5" r="3.5" transform="rotate(0,212.5,65.5)"/><circle cx="212.5" cy="79.5" r="3.5" transform="rotate(0,212.5,79.5)"/><circle cx="212.5" cy="86.5" r="3.5" transform="rotate(0,212.5,86.5)"/><circle cx="212.5" cy="121.5" r="3.5" transform="rotate(0,212.5,121.5)"/><circle cx="212.5" cy="149.5" r="3.5" transform="rotate(0,212.5,149.5)"/><circle cx="212.5" cy="156.5" r="3.5" transform="rotate(0,212.5,156.5)"/><circle cx="212.5" cy="198.5" r="3.5" transform="rotate(0,212.5,198.5)"/><circle cx="212.5" cy="205.5" r="3.5" transform="rotate(0,212.5,205.5)"/><circle cx="212.5" cy="212.5" r="3.5" transform="rotate(0,212.5,212.5)"/><circle cx="212.5" cy="226.5" r="3.5" transform="rotate(0,212.5,226.5)"/><circle cx="212.5" cy="233.5" r="3.5" transform="rotate(0,212.5,233.5)"/><circle cx="212.5" cy="247.5" r="3.5" transform="rotate(0,212.5,247.5)"/><circle cx="212.5" cy="254.5" r="3.5" transform="rotate(0,212.5,254.5)"/><circle cx="212.5" cy="282.5" r="3.5" transform="rotate(0,212.5,282.5)"/><circle cx="212.5" cy="289.5" r="3.5" transform="rotate(0,212.5,289.5)"/><circle cx="219.5" cy="9.5" r="3.5" transform="rotate(0,219.5,9.5)"/><circle cx="219.5" cy="16.5" r="3.5" transform="rotate(0,219.5,16.5)"/><circle cx="219.5" cy="23.5" r="3.5" transform="rotate(0,219.5,23.5)"/><circle cx="219.5" cy="37.5" r="3.5" transform="rotate(0,219.5,37.5)"/><circle cx="219.5" cy="51.5" r="3.5" transform="rotate(0,219.5,51.5)"/><circle cx="219.5" cy="72.5" r="3.5" transform="rotate(0,219.5,72.5)"/><circle cx="219.5" cy="79.5" r="3.5" transform="rotate(0,219.5,79.5)"/><circle cx="219.5" cy="100.5" r="3.5" transform="rotate(0,219.5,100.5)"/><circle cx="219.5" cy="128.5" r="3.5" transform="rotate(0,219.5,128.5)"/><circle cx="219.5" cy="135.5" r="3.5" transform="rotate(0,219.5,135.5)"/><circle cx="219.5" cy="142.5" r="3.5" transform="rotate(0,219.5,142.5)"/><circle cx="219.5" cy="149.5" r="3.5" transform="rotate(0,219.5,149.5)"/><circle cx="219.5" cy="156.5" r="3.5" transform="rotate(0,219.5,156.5)"/><circle cx="219.5" cy="170.5" r="3.5" transform="rotate(0,219.5,170.5)"/><circle cx="219.5" cy="184.5" r="3.5" transform="rotate(0,219.5,184.5)"/><circle cx="219.5" cy="198.5" r="3.5" transform="rotate(0,219.5,198.5)"/><circle cx="219.5" cy="205.5" r="3.5" transform="rotate(0,219.5,205.5)"/><circle cx="219.5" cy="226.5" r="3.5" transform="rotate(0,219.5,226.5)"/><circle cx="219.5" cy="240.5" r="3.5" transform="rotate(0,219.5,240.5)"/><circle cx="219.5" cy="289.5" r="3.5" transform="rotate(0,219.5,289.5)"/><circle cx="226.5" cy="23.5" r="3.5" transform="rotate(0,226.5,23.5)"/><circle cx="226.5" cy="37.5" r="3.5" transform="rotate(0,226.5,37.5)"/><circle cx="226.5" cy="58.5" r="3.5" transform="rotate(0,226.5,58.5)"/><circle cx="226.5" cy="65.5" r="3.5" transform="rotate(0,226.5,65.5)"/><circle cx="226.5" cy="72.5" r="3.5" transform="rotate(0,226.5,72.5)"/><circle cx="226.5" cy="149.5" r="3.5" transform="rotate(0,226.5,149.5)"/><circle cx="226.5" cy="156.5" r="3.5" transform="rotate(0,226.5,156.5)"/><circle cx="226.5" cy="163.5" r="3.5" transform="rotate(0,226.5,163.5)"/><circle cx="226.5" cy="170.5" r="3.5" transform="rotate(0,226.5,170.5)"/><circle cx="226.5" cy="191.5" r="3.5" transform="rotate(0,226.5,191.5)"/><circle cx="226.5" cy="198.5" r="3.5" transform="rotate(0,226.5,198.5)"/><circle cx="226.5" cy="205.5" r="3.5" transform="rotate(0,226.5,205.5)"/><circle cx="226.5" cy="219.5" r="3.5" transform="rotate(0,226.5,219.5)"/><circle cx="226.5" cy="233.5" r="3.5" transform="rotate(0,226.5,233.5)"/><circle cx="226.5" cy="247.5" r="3.5" transform="rotate(0,226.5,247.5)"/><circle cx="226.5" cy="254.5" r="3.5" transform="rotate(0,226.5,254.5)"/><circle cx="226.5" cy="261.5" r="3.5" transform="rotate(0,226.5,261.5)"/><circle cx="226.5" cy="268.5" r="3.5" transform="rotate(0,226.5,268.5)"/><circle cx="226.5" cy="282.5" r="3.5" transform="rotate(0,226.5,282.5)"/><circle cx="233.5" cy="9.5" r="3.5" transform="rotate(0,233.5,9.5)"/><circle cx="233.5" cy="16.5" r="3.5" transform="rotate(0,233.5,16.5)"/><circle cx="233.5" cy="30.5" r="3.5" transform="rotate(0,233.5,30.5)"/><circle cx="233.5" cy="37.5" r="3.5" transform="rotate(0,233.5,37.5)"/><circle cx="233.5" cy="44.5" r="3.5" transform="rotate(0,233.5,44.5)"/><circle cx="233.5" cy="51.5" r="3.5" transform="rotate(0,233.5,51.5)"/><circle cx="233.5" cy="58.5" r="3.5" transform="rotate(0,233.5,58.5)"/><circle cx="233.5" cy="72.5" r="3.5" transform="rotate(0,233.5,72.5)"/><circle cx="233.5" cy="79.5" r="3.5" transform="rotate(0,233.5,79.5)"/><circle cx="233.5" cy="86.5" r="3.5" transform="rotate(0,233.5,86.5)"/><circle cx="233.5" cy="100.5" r="3.5" transform="rotate(0,233.5,100.5)"/><circle cx="233.5" cy="121.5" r="3.5" transform="rotate(0,233.5,121.5)"/><circle cx="233.5" cy="135.5" r="3.5" transform="rotate(0,233.5,135.5)"/><circle cx="233.5" cy="149.5" r="3.5" transform="rotate(0,233.5,149.5)"/><circle cx="233.5" cy="205.5" r="3.5" transform="rotate(0,233.5,205.5)"/><circle cx="233.5" cy="226.5" r="3.5" transform="rotate(0,233.5,226.5)"/><circle cx="233.5" cy="233.5" r="3.5" transform="rotate(0,233.5,233.5)"/><circle cx="233.5" cy="240.5" r="3.5" transform="rotate(0,233.5,240.5)"/><circle cx="233.5" cy="247.5" r="3.5" transform="rotate(0,233.5,247.5)"/><circle cx="233.5" cy="254.5" r="3.5" transform="rotate(0,233.5,254.5)"/><circle cx="233.5" cy="261.5" r="3.5" transform="rotate(0,233.5,261.5)"/><circle cx="233.5" cy="268.5" r="3.5" transform="rotate(0,233.5,268.5)"/><circle cx="233.5" cy="289.5" r="3.5" transform="rotate(0,233.5,289.5)"/><circle cx="240.5" cy="65.5" r="3.5" transform="rotate(0,240.5,65.5)"/><circle cx="240.5" cy="79.5" r="3.5" transform="rotate(0,240.5,79.5)"/><circle cx="240.5" cy="93.5" r="3.5" transform="rotate(0,240.5,93.5)"/><circle cx="240.5" cy="100.5" r="3.5" transform="rotate(0,240.5,100.5)"/><circle cx="240.5" cy="107.5" r="3.5" transform="rotate(0,240.5,107.5)"/><circle cx="240.5" cy="114.5" r="3.5" transform="rotate(0,240.5,114.5)"/><circle cx="240.5" cy="135.5" r="3.5" transform="rotate(0,240.5,135.5)"/><circle cx="240.5" cy="142.5" r="3.5" transform="rotate(0,240.5,142.5)"/><circle cx="240.5" cy="149.5" r="3.5" transform="rotate(0,240.5,149.5)"/><circle cx="240.5" cy="156.5" r="3.5" transform="rotate(0,240.5,156.5)"/><circle cx="240.5" cy="170.5" r="3.5" transform="rotate(0,240.5,170.5)"/><circle cx="240.5" cy="177.5" r="3.5" transform="rotate(0,240.5,177.5)"/><circle cx="240.5" cy="198.5" r="3.5" transform="rotate(0,240.5,198.5)"/><circle cx="240.5" cy="233.5" r="3.5" transform="rotate(0,240.5,233.5)"/><circle cx="240.5" cy="261.5" r="3.5" transform="rotate(0,240.5,261.5)"/><circle cx="240.5" cy="275.5" r="3.5" transform="rotate(0,240.5,275.5)"/><circle cx="240.5" cy="289.5" r="3.5" transform="rotate(0,240.5,289.5)"/><circle cx="247.5" cy="79.5" r="3.5" transform="rotate(0,247.5,79.5)"/><circle cx="247.5" cy="93.5" r="3.5" transform="rotate(0,247.5,93.5)"/><circle cx="247.5" cy="107.5" r="3.5" transform="rotate(0,247.5,107.5)"/><circle cx="247.5" cy="114.5" r="3.5" transform="rotate(0,247.5,114.5)"/><circle cx="247.5" cy="128.5" r="3.5" transform="rotate(0,247.5,128.5)"/><circle cx="247.5" cy="142.5" r="3.5" transform="rotate(0,247.5,142.5)"/><circle cx="247.5" cy="163.5" r="3.5" transform="rotate(0,247.5,163.5)"/><circle cx="247.5" cy="170.5" r="3.5" transform="rotate(0,247.5,170.5)"/><circle cx="247.5" cy="191.5" r="3.5" transform="rotate(0,247.5,191.5)"/><circle cx="247.5" cy="198.5" r="3.5" transform="rotate(0,247.5,198.5)"/><circle cx="247.5" cy="212.5" r="3.5" transform="rotate(0,247.5,212.5)"/><circle cx="247.5" cy="233.5" r="3.5" transform="rotate(0,247.5,233.5)"/><circle cx="247.5" cy="247.5" r="3.5" transform="rotate(0,247.5,247.5)"/><circle cx="247.5" cy="261.5" r="3.5" transform="rotate(0,247.5,261.5)"/><circle cx="247.5" cy="275.5" r="3.5" transform="rotate(0,247.5,275.5)"/><circle cx="247.5" cy="289.5" r="3.5" transform="rotate(0,247.5,289.5)"/><circle cx="254.5" cy="72.5" r="3.5" transform="rotate(0,254.5,72.5)"/><circle cx="254.5" cy="93.5" r="3.5" transform="rotate(0,254.5,93.5)"/><circle cx="254.5" cy="100.5" r="3.5" transform="rotate(0,254.5,100.5)"/><circle cx="254.5" cy="107.5" r="3.5" transform="rotate(0,254.5,107.5)"/><circle cx="254.5" cy="121.5" r="3.5" transform="rotate(0,254.5,121.5)"/><circle cx="254.5" cy="128.5" r="3.5" transform="rotate(0,254.5,128.5)"/><circle cx="254.5" cy="135.5" r="3.5" transform="rotate(0,254.5,135.5)"/><circle cx="254.5" cy="149.5" r="3.5" transform="rotate(0,254.5,149.5)"/><circle cx="254.5" cy="156.5" r="3.5" transform="rotate(0,254.5,156.5)"/><circle cx="254.5" cy="170.5" r="3.5" transform="rotate(0,254.5,170.5)"/><circle cx="254.5" cy="191.5" r="3.5" transform="rotate(0,254.5,191.5)"/><circle cx="254.5" cy="205.5" r="3.5" transform="rotate(0,254.5,205.5)"/><circle cx="254.5" cy="219.5" r="3.5" transform="rotate(0,254.5,219.5)"/><circle cx="254.5" cy="226.5" r="3.5" transform="rotate(0,254.5,226.5)"/><circle cx="254.5" cy="233.5" r="3.5" transform="rotate(0,254.5,233.5)"/><circle cx="254.5" cy="261.5" r="3.5" transform="rotate(0,254.5,261.5)"/><circle cx="254.5" cy="268.5" r="3.5" transform="rotate(0,254.5,268.5)"/><circle cx="261.5" cy="72.5" r="3.5" transform="rotate(0,261.5,72.5)"/><circle cx="261.5" cy="128.5" r="3.5" transform="rotate(0,261.5,128.5)"/><circle cx="261.5" cy="149.5" r="3.5" transform="rotate(0,261.5,149.5)"/><circle cx="261.5" cy="177.5" r="3.5" transform="rotate(0,261.5,177.5)"/><circle cx="261.5" cy="205.5" r="3.5" transform="rotate(0,261.5,205.5)"/><circle cx="261.5" cy="226.5" r="3.5" transform="rotate(0,261.5,226.5)"/><circle cx="261.5" cy="233.5" r="3.5" transform="rotate(0,261.5,233.5)"/><circle cx="261.5" cy="240.5" r="3.5" transform="rotate(0,261.5,240.5)"/><circle cx="261.5" cy="247.5" r="3.5" transform="rotate(0,261.5,247.5)"/><circle cx="261.5" cy="254.5" r="3.5" transform="rotate(0,261.5,254.5)"/><circle cx="261.5" cy="261.5" r="3.5" transform="rotate(0,261.5,261.5)"/><circle cx="261.5" cy="268.5" r="3.5" transform="rotate(0,261.5,268.5)"/><circle cx="268.5" cy="72.5" r="3.5" transform="rotate(0,268.5,72.5)"/><circle cx="268.5" cy="86.5" r="3.5" transform="rotate(0,268.5,86.5)"/><circle cx="268.5" cy="114.5" r="3.5" transform="rotate(0,268.5,114.5)"/><circle cx="268.5" cy="121.5" r="3.5" transform="rotate(0,268.5,121.5)"/><circle cx="268.5" cy="128.5" r="3.5" transform="rotate(0,268.5,128.5)"/><circle cx="268.5" cy="135.5" r="3.5" transform="rotate(0,268.5,135.5)"/><circle cx="268.5" cy="149.5" r="3.5" transform="rotate(0,268.5,149.5)"/><circle cx="268.5" cy="170.5" r="3.5" transform="rotate(0,268.5,170.5)"/><circle cx="268.5" cy="177.5" r="3.5" transform="rotate(0,268.5,177.5)"/><circle cx="268.5" cy="184.5" r="3.5" transform="rotate(0,268.5,184.5)"/><circle cx="268.5" cy="198.5" r="3.5" transform="rotate(0,268.5,198.5)"/><circle cx="268.5" cy="205.5" r="3.5" transform="rotate(0,268.5,205.5)"/><circle cx="268.5" cy="226.5" r="3.5" transform="rotate(0,268.5,226.5)"/><circle cx="268.5" cy="254.5" r="3.5" transform="rotate(0,268.5,254.5)"/><circle cx="268.5" cy="261.5" r="3.5" transform="rotate(0,268.5,261.5)"/><circle cx="268.5" cy="275.5" r="3.5" transform="rotate(0,268.5,275.5)"/><circle cx="275.5" cy="65.5" r="3.5" transform="rotate(0,275.5,65.5)"/><circle cx="275.5" cy="107.5" r="3.5" transform="rotate(0,275.5,107.5)"/><circle cx="275.5" cy="114.5" r="3.5" transform="rotate(0,275.5,114.5)"/><circle cx="275.5" cy="128.5" r="3.5" transform="rotate(0,275.5,128.5)"/><circle cx="275.5" cy="135.5" r="3.5" transform="rotate(0,275.5,135.5)"/><circle cx="275.5" cy="149.5" r="3.5" transform="rotate(0,275.5,149.5)"/><circle cx="275.5" cy="163.5" r="3.5" transform="rotate(0,275.5,163.5)"/><circle cx="275.5" cy="170.5" r="3.5" transform="rotate(0,275.5,170.5)"/><circle cx="275.5" cy="198.5" r="3.5" transform="rotate(0,275.5,198.5)"/><circle cx="275.5" cy="212.5" r="3.5" transform="rotate(0,275.5,212.5)"/><circle cx="275.5" cy="219.5" r="3.5" transform="rotate(0,275.5,219.5)"/><circle cx="275.5" cy="226.5" r="3.5" transform="rotate(0,275.5,226.5)"/><circle cx="275.5" cy="240.5" r="3.5" transform="rotate(0,275.5,240.5)"/><circle cx="275.5" cy="261.5" r="3.5" transform="rotate(0,275.5,261.5)"/><circle cx="275.5" cy="289.5" r="3.5" transform="rotate(0,275.5,289.5)"/><circle cx="282.5" cy="65.5" r="3.5" transform="rotate(0,282.5,65.5)"/><circle cx="282.5" cy="100.5" r="3.5" transform="rotate(0,282.5,100.5)"/><circle cx="282.5" cy="114.5" r="3.5" transform="rotate(0,282.5,114.5)"/><circle cx="282.5" cy="121.5" r="3.5" transform="rotate(0,282.5,121.5)"/><circle cx="282.5" cy="128.5" r="3.5" transform="rotate(0,282.5,128.5)"/><circle cx="282.5" cy="170.5" r="3.5" transform="rotate(0,282.5,170.5)"/><circle cx="282.5" cy="177.5" r="3.5" transform="rotate(0,282.5,177.5)"/><circle cx="282.5" cy="191.5" r="3.5" transform="rotate(0,282.5,191.5)"/><circle cx="282.5" cy="198.5" r="3.5" transform="rotate(0,282.5,198.5)"/><circle cx="282.5" cy="205.5" r="3.5" transform="rotate(0,282.5,205.5)"/><circle cx="282.5" cy="219.5" r="3.5" transform="rotate(0,282.5,219.5)"/><circle cx="282.5" cy="226.5" r="3.5" transform="rotate(0,282.5,226.5)"/><circle cx="282.5" cy="233.5" r="3.5" transform="rotate(0,282.5,233.5)"/><circle cx="282.5" cy="268.5" r="3.5" transform="rotate(0,282.5,268.5)"/><circle cx="289.5" cy="86.5" r="3.5" transform="rotate(0,289.5,86.5)"/><circle cx="289.5" cy="93.5" r="3.5" transform="rotate(0,289.5,93.5)"/><circle cx="289.5" cy="100.5" r="3.5" transform="rotate(0,289.5,100.5)"/><circle cx="289.5" cy="107.5" r="3.5" transform="rotate(0,289.5,107.5)"/><circle cx="289.5" cy="114.5" r="3.5" transform="rotate(0,289.5,114.5)"/><circle cx="289.5" cy="135.5" r="3.5" transform="rotate(0,289.5,135.5)"/><circle cx="289.5" cy="142.5" r="3.5" transform="rotate(0,289.5,142.5)"/><circle cx="289.5" cy="163.5" r="3.5" transform="rotate(0,289.5,163.5)"/><circle cx="289.5" cy="177.5" r="3.5" transform="rotate(0,289.5,177.5)"/><circle cx="289.5" cy="233.5" r="3.5" transform="rotate(0,289.5,233.5)"/><circle cx="289.5" cy="261.5" r="3.5" transform="rotate(0,289.5,261.5)"/><circle cx="289.5" cy="268.5" r="3.5" transform="rotate(0,289.5,268.5)"/><circle cx="289.5" cy="289.5" r="3.5" transform="rotate(0,289.5,289.5)"/><path clip-rule="evenodd" d="M 6 23.5v 14a 17.5 17.5, 0, 0, 0, 17.5 17.5h 14a 17.5 17.5, 0, 0, 0, 17.5 -17.5v -14a 17.5 17.5, 0, 0, 0, -17.5 -17.5h -14a 17.5 17.5, 0, 0, 0, -17.5 17.5M 23.5 13h 14a 10.5 10.5, 0, 0, 1, 10.5 10.5v 14a 10.5 10.5, 0, 0, 1, -10.5 10.5h -14a 10.5 10.5, 0, 0, 1, -10.5 -10.5v -14a 10.5 10.5, 0, 0, 1, 10.5 -10.5" transform="rotate(0,30.5,30.5)"/><circle cx="23.5" cy="23.5" r="3.5" transform="rotate(0,23.5,23.5)"/><circle cx="23.5" cy="30.5" r="3.5" transform="rotate(0,23.5,30.5)"/><circle cx="23.5" cy="37.5" r="3.5" transform="rotate(0,23.5,37.5)"/><circle cx="30.5" cy="23.5" r="3.5" transform="rotate(0,30.5,23.5)"/><circle cx="30.5" cy="30.5" r="3.5" transform="rotate(0,30.5,30.5)"/><circle cx="30.5" cy="37.5" r="3.5" transform="rotate(0,30.5,37.5)"/><circle cx="37.5" cy="23.5" r="3.5" transform="rotate(0,37.5,23.5)"/><circle cx="37.5" cy="30.5" r="3.5" transform="rotate(0,37.5,30.5)"/><circle cx="37.5" cy="37.5" r="3.5" transform="rotate(0,37.5,37.5)"/><path clip-rule="evenodd" d="M 244 23.5v 14a 17.5 17.5, 0, 0, 0, 17.5 17.5h 14a 17.5 17.5, 0, 0, 0, 17.5 -17.5v -14a 17.5 17.5, 0, 0, 0, -17.5 -17.5h -14a 17.5 17.5, 0, 0, 0, -17.5 17.5M 261.5 13h 14a 10.5 10.5, 0, 0, 1, 10.5 10.5v 14a 10.5 10.5, 0, 0, 1, -10.5 10.5h -14a 10.5 10.5, 0, 0, 1, -10.5 -10.5v -14a 10.5 10.5, 0, 0, 1, 10.5 -10.5" transform="rotate(90,268.5,30.5)"/><circle cx="261.5" cy="23.5" r="3.5" transform="rotate(0,261.5,23.5)"/><circle cx="261.5" cy="30.5" r="3.5" transform="rotate(0,261.5,30.5)"/><circle cx="261.5" cy="37.5" r="3.5" transform="rotate(0,261.5,37.5)"/><circle cx="268.5" cy="23.5" r="3.5" transform="rotate(0,268.5,23.5)"/><circle cx="268.5" cy="30.5" r="3.5" transform="rotate(0,268.5,30.5)"/><circle cx="268.5" cy="37.5" r="3.5" transform="rotate(0,268.5,37.5)"/><circle cx="275.5" cy="23.5" r="3.5" transform="rotate(0,275.5,23.5)"/><circle cx="275.5" cy="30.5" r="3.5" transform="rotate(0,275.5,30.5)"/><circle cx="275.5" cy="37.5" r="3.5" transform="rotate(0,275.5,37.5)"/><path clip-rule="evenodd" d="M 6 261.5v 14a 17.5 17.5, 0, 0, 0, 17.5 17.5h 14a 17.5 17.5, 0, 0, 0, 17.5 -17.5v -14a 17.5 17.5, 0, 0, 0, -17.5 -17.5h -14a 17.5 17.5, 0, 0, 0, -17.5 17.5M 23.5 251h 14a 10.5 10.5, 0, 0, 1, 10.5 10.5v 14a 10.5 10.5, 0, 0, 1, -10.5 10.5h -14a 10.5 10.5, 0, 0, 1, -10.5 -10.5v -14a 10.5 10.5, 0, 0, 1, 10.5 -10.5" transform="rotate(-90,30.5,268.5)"/><circle cx="23.5" cy="261.5" r="3.5" transform="rotate(0,23.5,261.5)"/><circle cx="23.5" cy="268.5" r="3.5" transform="rotate(0,23.5,268.5)"/><circle cx="23.5" cy="275.5" r="3.5" transform="rotate(0,23.5,275.5)"/><circle cx="30.5" cy="261.5" r="3.5" transform="rotate(0,30.5,261.5)"/><circle cx="30.5" cy="268.5" r="3.5" transform="rotate(0,30.5,268.5)"/><circle cx="30.5" cy="275.5" r="3.5" transform="rotate(0,30.5,275.5)"/><circle cx="37.5" cy="261.5" r="3.5" transform="rotate(0,37.5,261.5)"/><circle cx="37.5" cy="268.5" r="3.5" transform="rotate(0,37.5,268.5)"/><circle cx="37.5" cy="275.5" r="3.5" transform="rotate(0,37.5,275.5)"/></clipPath></defs><rect x="0" y="0" height="300" width="300" clip-path="url('#clip-path-background-color')" fill="#fff"/><rect x="0" y="0" height="300" width="300" clip-path="url('#clip-path-dot-color')" fill="#000000"/></svg>